<mxfile host="app.diagrams.net" agent="Mozilla/5.0 (Macintosh; Intel Mac OS X 10_15_7) AppleWebKit/537.36 (KHTML, like Gecko) Chrome/129.0.0.0 Safari/537.36" version="24.7.16">
  <diagram id="C5RBs43oDa-KdzZeNtuy" name="Page-1">
    <mxGraphModel dx="2057" dy="781" grid="1" gridSize="10" guides="1" tooltips="1" connect="1" arrows="1" fold="1" page="1" pageScale="1" pageWidth="827" pageHeight="1169" math="0" shadow="0">
      <root>
        <mxCell id="WIyWlLk6GJQsqaUBKTNV-0" />
        <mxCell id="WIyWlLk6GJQsqaUBKTNV-1" parent="WIyWlLk6GJQsqaUBKTNV-0" />
        <mxCell id="WIyWlLk6GJQsqaUBKTNV-2" value="" style="rounded=0;html=1;jettySize=auto;orthogonalLoop=1;fontSize=11;endArrow=block;endFill=0;endSize=8;strokeWidth=1;shadow=0;labelBackgroundColor=none;edgeStyle=orthogonalEdgeStyle;" parent="WIyWlLk6GJQsqaUBKTNV-1" edge="1">
          <mxGeometry relative="1" as="geometry">
            <mxPoint x="37" y="205" as="sourcePoint" />
            <mxPoint x="37" y="255" as="targetPoint" />
          </mxGeometry>
        </mxCell>
        <mxCell id="dZyuDJjZOtoN2MiiPt3H-0" value="&lt;font style=&quot;font-size: 14px;&quot;&gt;basla&lt;/font&gt;" style="ellipse;whiteSpace=wrap;html=1;" vertex="1" parent="WIyWlLk6GJQsqaUBKTNV-1">
          <mxGeometry x="-3" y="155" width="82" height="50" as="geometry" />
        </mxCell>
        <mxCell id="dZyuDJjZOtoN2MiiPt3H-19" style="edgeStyle=orthogonalEdgeStyle;rounded=0;orthogonalLoop=1;jettySize=auto;html=1;exitX=0.5;exitY=1;exitDx=0;exitDy=0;entryX=0.5;entryY=0;entryDx=0;entryDy=0;" edge="1" parent="WIyWlLk6GJQsqaUBKTNV-1" source="dZyuDJjZOtoN2MiiPt3H-8" target="dZyuDJjZOtoN2MiiPt3H-13">
          <mxGeometry relative="1" as="geometry" />
        </mxCell>
        <mxCell id="dZyuDJjZOtoN2MiiPt3H-8" value="sayi" style="shape=parallelogram;perimeter=parallelogramPerimeter;whiteSpace=wrap;html=1;fixedSize=1;" vertex="1" parent="WIyWlLk6GJQsqaUBKTNV-1">
          <mxGeometry x="-22" y="255" width="120" height="60" as="geometry" />
        </mxCell>
        <mxCell id="dZyuDJjZOtoN2MiiPt3H-20" value="yes" style="edgeStyle=orthogonalEdgeStyle;rounded=0;orthogonalLoop=1;jettySize=auto;html=1;exitX=0;exitY=0.5;exitDx=0;exitDy=0;" edge="1" parent="WIyWlLk6GJQsqaUBKTNV-1" source="dZyuDJjZOtoN2MiiPt3H-13">
          <mxGeometry relative="1" as="geometry">
            <mxPoint x="-100" y="445" as="targetPoint" />
          </mxGeometry>
        </mxCell>
        <mxCell id="dZyuDJjZOtoN2MiiPt3H-21" value="no" style="edgeStyle=orthogonalEdgeStyle;rounded=0;orthogonalLoop=1;jettySize=auto;html=1;exitX=1;exitY=0.5;exitDx=0;exitDy=0;" edge="1" parent="WIyWlLk6GJQsqaUBKTNV-1" source="dZyuDJjZOtoN2MiiPt3H-13">
          <mxGeometry relative="1" as="geometry">
            <mxPoint x="180" y="445" as="targetPoint" />
          </mxGeometry>
        </mxCell>
        <mxCell id="dZyuDJjZOtoN2MiiPt3H-13" value="eğer sayi%2 == 0" style="rhombus;whiteSpace=wrap;html=1;" vertex="1" parent="WIyWlLk6GJQsqaUBKTNV-1">
          <mxGeometry x="-40" y="355" width="156" height="80" as="geometry" />
        </mxCell>
        <mxCell id="dZyuDJjZOtoN2MiiPt3H-15" value="&lt;h2 style=&quot;font-size: 20px;&quot; class=&quot;&quot; data-sourcepos=&quot;1:1-1:69&quot;&gt;Bir Sayının Tek mi Çift mi Olduğunu Bulan Programın Akış Diyagramı&lt;/h2&gt;&lt;p data-sourcepos=&quot;3:1-3:43&quot;&gt;&lt;/p&gt;" style="text;strokeColor=none;fillColor=none;html=1;fontSize=24;fontStyle=1;verticalAlign=middle;align=center;" vertex="1" parent="WIyWlLk6GJQsqaUBKTNV-1">
          <mxGeometry x="-40" y="90" width="100" height="40" as="geometry" />
        </mxCell>
        <mxCell id="dZyuDJjZOtoN2MiiPt3H-22" value="sayimiz çifttir." style="shape=parallelogram;perimeter=parallelogramPerimeter;whiteSpace=wrap;html=1;fixedSize=1;" vertex="1" parent="WIyWlLk6GJQsqaUBKTNV-1">
          <mxGeometry x="-160" y="445" width="120" height="60" as="geometry" />
        </mxCell>
        <mxCell id="dZyuDJjZOtoN2MiiPt3H-27" style="edgeStyle=orthogonalEdgeStyle;rounded=0;orthogonalLoop=1;jettySize=auto;html=1;exitX=0.5;exitY=1;exitDx=0;exitDy=0;entryX=1;entryY=0.5;entryDx=0;entryDy=0;" edge="1" parent="WIyWlLk6GJQsqaUBKTNV-1" source="dZyuDJjZOtoN2MiiPt3H-23" target="dZyuDJjZOtoN2MiiPt3H-25">
          <mxGeometry relative="1" as="geometry" />
        </mxCell>
        <mxCell id="dZyuDJjZOtoN2MiiPt3H-23" value="sayimiz tektir." style="shape=parallelogram;perimeter=parallelogramPerimeter;whiteSpace=wrap;html=1;fixedSize=1;" vertex="1" parent="WIyWlLk6GJQsqaUBKTNV-1">
          <mxGeometry x="116" y="445" width="120" height="60" as="geometry" />
        </mxCell>
        <mxCell id="dZyuDJjZOtoN2MiiPt3H-25" value="bitir" style="ellipse;whiteSpace=wrap;html=1;" vertex="1" parent="WIyWlLk6GJQsqaUBKTNV-1">
          <mxGeometry x="-3" y="535" width="82" height="50" as="geometry" />
        </mxCell>
        <mxCell id="dZyuDJjZOtoN2MiiPt3H-33" style="edgeStyle=orthogonalEdgeStyle;rounded=0;orthogonalLoop=1;jettySize=auto;html=1;exitX=0.5;exitY=1;exitDx=0;exitDy=0;entryX=-0.012;entryY=0.65;entryDx=0;entryDy=0;entryPerimeter=0;" edge="1" parent="WIyWlLk6GJQsqaUBKTNV-1" source="dZyuDJjZOtoN2MiiPt3H-22" target="dZyuDJjZOtoN2MiiPt3H-25">
          <mxGeometry relative="1" as="geometry" />
        </mxCell>
        <mxCell id="dZyuDJjZOtoN2MiiPt3H-37" value="Bir sayının asal olup olmadığını belirleyen bir programın akış diyagramını çizin" style="text;strokeColor=none;fillColor=none;html=1;fontSize=20;fontStyle=1;verticalAlign=middle;align=center;" vertex="1" parent="WIyWlLk6GJQsqaUBKTNV-1">
          <mxGeometry x="10" y="650" width="100" height="40" as="geometry" />
        </mxCell>
        <mxCell id="dZyuDJjZOtoN2MiiPt3H-52" style="edgeStyle=orthogonalEdgeStyle;rounded=0;orthogonalLoop=1;jettySize=auto;html=1;exitX=0.5;exitY=1;exitDx=0;exitDy=0;entryX=0.5;entryY=0;entryDx=0;entryDy=0;" edge="1" parent="WIyWlLk6GJQsqaUBKTNV-1" source="dZyuDJjZOtoN2MiiPt3H-38" target="dZyuDJjZOtoN2MiiPt3H-39">
          <mxGeometry relative="1" as="geometry" />
        </mxCell>
        <mxCell id="dZyuDJjZOtoN2MiiPt3H-38" value="&lt;font style=&quot;font-size: 14px;&quot;&gt;basla&lt;/font&gt;" style="ellipse;whiteSpace=wrap;html=1;" vertex="1" parent="WIyWlLk6GJQsqaUBKTNV-1">
          <mxGeometry x="-3" y="720" width="82" height="40" as="geometry" />
        </mxCell>
        <mxCell id="dZyuDJjZOtoN2MiiPt3H-50" style="edgeStyle=orthogonalEdgeStyle;rounded=0;orthogonalLoop=1;jettySize=auto;html=1;exitX=0.5;exitY=1;exitDx=0;exitDy=0;" edge="1" parent="WIyWlLk6GJQsqaUBKTNV-1" source="dZyuDJjZOtoN2MiiPt3H-39">
          <mxGeometry relative="1" as="geometry">
            <mxPoint x="38" y="920" as="targetPoint" />
          </mxGeometry>
        </mxCell>
        <mxCell id="dZyuDJjZOtoN2MiiPt3H-39" value="sayi" style="shape=parallelogram;perimeter=parallelogramPerimeter;whiteSpace=wrap;html=1;fixedSize=1;" vertex="1" parent="WIyWlLk6GJQsqaUBKTNV-1">
          <mxGeometry x="-22" y="820" width="120" height="60" as="geometry" />
        </mxCell>
        <mxCell id="dZyuDJjZOtoN2MiiPt3H-54" value="hayır" style="edgeStyle=orthogonalEdgeStyle;rounded=0;orthogonalLoop=1;jettySize=auto;html=1;exitX=1;exitY=0.5;exitDx=0;exitDy=0;entryX=0.5;entryY=0;entryDx=0;entryDy=0;" edge="1" parent="WIyWlLk6GJQsqaUBKTNV-1" source="dZyuDJjZOtoN2MiiPt3H-40" target="dZyuDJjZOtoN2MiiPt3H-53">
          <mxGeometry relative="1" as="geometry" />
        </mxCell>
        <mxCell id="dZyuDJjZOtoN2MiiPt3H-40" value="eğer dsayi &amp;lt;=1" style="rhombus;whiteSpace=wrap;html=1;" vertex="1" parent="WIyWlLk6GJQsqaUBKTNV-1">
          <mxGeometry x="-42" y="920" width="160" height="80" as="geometry" />
        </mxCell>
        <mxCell id="dZyuDJjZOtoN2MiiPt3H-45" style="edgeStyle=orthogonalEdgeStyle;rounded=0;orthogonalLoop=1;jettySize=auto;html=1;exitX=0.5;exitY=1;exitDx=0;exitDy=0;entryX=0;entryY=0.5;entryDx=0;entryDy=0;" edge="1" parent="WIyWlLk6GJQsqaUBKTNV-1" source="dZyuDJjZOtoN2MiiPt3H-41" target="dZyuDJjZOtoN2MiiPt3H-43">
          <mxGeometry relative="1" as="geometry" />
        </mxCell>
        <mxCell id="dZyuDJjZOtoN2MiiPt3H-41" value="asal değil" style="shape=parallelogram;perimeter=parallelogramPerimeter;whiteSpace=wrap;html=1;fixedSize=1;" vertex="1" parent="WIyWlLk6GJQsqaUBKTNV-1">
          <mxGeometry x="-180" y="1090" width="120" height="60" as="geometry" />
        </mxCell>
        <mxCell id="dZyuDJjZOtoN2MiiPt3H-43" value="bitir" style="ellipse;whiteSpace=wrap;html=1;" vertex="1" parent="WIyWlLk6GJQsqaUBKTNV-1">
          <mxGeometry x="-10" y="1480" width="82" height="50" as="geometry" />
        </mxCell>
        <mxCell id="dZyuDJjZOtoN2MiiPt3H-44" value="evet" style="edgeStyle=orthogonalEdgeStyle;rounded=0;orthogonalLoop=1;jettySize=auto;html=1;exitX=0;exitY=0.5;exitDx=0;exitDy=0;entryX=0.567;entryY=-0.033;entryDx=0;entryDy=0;entryPerimeter=0;" edge="1" parent="WIyWlLk6GJQsqaUBKTNV-1" source="dZyuDJjZOtoN2MiiPt3H-40" target="dZyuDJjZOtoN2MiiPt3H-41">
          <mxGeometry relative="1" as="geometry" />
        </mxCell>
        <mxCell id="dZyuDJjZOtoN2MiiPt3H-56" style="edgeStyle=orthogonalEdgeStyle;rounded=0;orthogonalLoop=1;jettySize=auto;html=1;exitX=0.5;exitY=1;exitDx=0;exitDy=0;entryX=0.5;entryY=0;entryDx=0;entryDy=0;" edge="1" parent="WIyWlLk6GJQsqaUBKTNV-1" source="dZyuDJjZOtoN2MiiPt3H-53" target="dZyuDJjZOtoN2MiiPt3H-55">
          <mxGeometry relative="1" as="geometry" />
        </mxCell>
        <mxCell id="dZyuDJjZOtoN2MiiPt3H-53" value="bölen = 2" style="rounded=0;whiteSpace=wrap;html=1;" vertex="1" parent="WIyWlLk6GJQsqaUBKTNV-1">
          <mxGeometry x="180" y="1000" width="120" height="60" as="geometry" />
        </mxCell>
        <mxCell id="dZyuDJjZOtoN2MiiPt3H-58" value="hayır" style="edgeStyle=orthogonalEdgeStyle;rounded=0;orthogonalLoop=1;jettySize=auto;html=1;exitX=1;exitY=0.5;exitDx=0;exitDy=0;entryX=0.5;entryY=0;entryDx=0;entryDy=0;" edge="1" parent="WIyWlLk6GJQsqaUBKTNV-1" source="dZyuDJjZOtoN2MiiPt3H-55" target="dZyuDJjZOtoN2MiiPt3H-57">
          <mxGeometry relative="1" as="geometry" />
        </mxCell>
        <mxCell id="dZyuDJjZOtoN2MiiPt3H-62" value="evet" style="edgeStyle=orthogonalEdgeStyle;rounded=0;orthogonalLoop=1;jettySize=auto;html=1;exitX=0.5;exitY=1;exitDx=0;exitDy=0;entryX=0.5;entryY=0;entryDx=0;entryDy=0;" edge="1" parent="WIyWlLk6GJQsqaUBKTNV-1" source="dZyuDJjZOtoN2MiiPt3H-55" target="dZyuDJjZOtoN2MiiPt3H-61">
          <mxGeometry relative="1" as="geometry">
            <mxPoint x="240" y="1230" as="targetPoint" />
          </mxGeometry>
        </mxCell>
        <mxCell id="dZyuDJjZOtoN2MiiPt3H-55" value="bölen &amp;lt; sayı" style="rhombus;whiteSpace=wrap;html=1;" vertex="1" parent="WIyWlLk6GJQsqaUBKTNV-1">
          <mxGeometry x="155" y="1090" width="170" height="80" as="geometry" />
        </mxCell>
        <mxCell id="dZyuDJjZOtoN2MiiPt3H-59" style="edgeStyle=orthogonalEdgeStyle;rounded=0;orthogonalLoop=1;jettySize=auto;html=1;entryX=1;entryY=0.5;entryDx=0;entryDy=0;" edge="1" parent="WIyWlLk6GJQsqaUBKTNV-1" source="dZyuDJjZOtoN2MiiPt3H-57" target="dZyuDJjZOtoN2MiiPt3H-43">
          <mxGeometry relative="1" as="geometry">
            <Array as="points">
              <mxPoint x="520" y="1500" />
              <mxPoint x="72" y="1500" />
            </Array>
          </mxGeometry>
        </mxCell>
        <mxCell id="dZyuDJjZOtoN2MiiPt3H-57" value="asal sayıdır" style="shape=parallelogram;perimeter=parallelogramPerimeter;whiteSpace=wrap;html=1;fixedSize=1;" vertex="1" parent="WIyWlLk6GJQsqaUBKTNV-1">
          <mxGeometry x="460" y="1169" width="120" height="60" as="geometry" />
        </mxCell>
        <mxCell id="dZyuDJjZOtoN2MiiPt3H-63" value="evet" style="edgeStyle=orthogonalEdgeStyle;rounded=0;orthogonalLoop=1;jettySize=auto;html=1;exitX=0;exitY=0.5;exitDx=0;exitDy=0;entryX=1;entryY=0.5;entryDx=0;entryDy=0;" edge="1" parent="WIyWlLk6GJQsqaUBKTNV-1" source="dZyuDJjZOtoN2MiiPt3H-61" target="dZyuDJjZOtoN2MiiPt3H-41">
          <mxGeometry relative="1" as="geometry">
            <Array as="points">
              <mxPoint x="50" y="1270" />
              <mxPoint x="50" y="1120" />
            </Array>
          </mxGeometry>
        </mxCell>
        <mxCell id="dZyuDJjZOtoN2MiiPt3H-64" value="hayır" style="edgeStyle=orthogonalEdgeStyle;rounded=0;orthogonalLoop=1;jettySize=auto;html=1;exitX=0.5;exitY=1;exitDx=0;exitDy=0;" edge="1" parent="WIyWlLk6GJQsqaUBKTNV-1" source="dZyuDJjZOtoN2MiiPt3H-61">
          <mxGeometry relative="1" as="geometry">
            <mxPoint x="240" y="1370" as="targetPoint" />
          </mxGeometry>
        </mxCell>
        <mxCell id="dZyuDJjZOtoN2MiiPt3H-61" value="&lt;meta charset=&quot;utf-8&quot;&gt;sayı % bölen == 0" style="rhombus;whiteSpace=wrap;html=1;" vertex="1" parent="WIyWlLk6GJQsqaUBKTNV-1">
          <mxGeometry x="98" y="1229" width="180" height="80" as="geometry" />
        </mxCell>
        <mxCell id="dZyuDJjZOtoN2MiiPt3H-66" style="edgeStyle=orthogonalEdgeStyle;rounded=0;orthogonalLoop=1;jettySize=auto;html=1;exitX=1;exitY=0.5;exitDx=0;exitDy=0;entryX=1;entryY=1;entryDx=0;entryDy=0;" edge="1" parent="WIyWlLk6GJQsqaUBKTNV-1" source="dZyuDJjZOtoN2MiiPt3H-65" target="dZyuDJjZOtoN2MiiPt3H-55">
          <mxGeometry relative="1" as="geometry">
            <Array as="points">
              <mxPoint x="400" y="1400" />
              <mxPoint x="400" y="1210" />
              <mxPoint x="283" y="1210" />
            </Array>
          </mxGeometry>
        </mxCell>
        <mxCell id="dZyuDJjZOtoN2MiiPt3H-65" value="bölen = bölen +1" style="rounded=0;whiteSpace=wrap;html=1;" vertex="1" parent="WIyWlLk6GJQsqaUBKTNV-1">
          <mxGeometry x="180" y="1370" width="120" height="60" as="geometry" />
        </mxCell>
        <mxCell id="dZyuDJjZOtoN2MiiPt3H-67" value="Bir öğrencinin sınav notlarına göre harf notu belirleyen bir programın akış diyagramını çizin.&#xa;Açıklama: Kullanıcı bir öğrencinin 0 ile 100 arasında bir sınav notu girer ve program bu notun karşılık geldiği harf notunu belirler. Harf&#xa;notu belirleme kriterleri aşağıdaki gibidir:&#xa;90-100: A&#xa;80-89: B&#xa;70-79: C&#xa;60-69: D&#xa;0-59: F" style="text;strokeColor=none;fillColor=none;html=1;fontSize=15;fontStyle=1;verticalAlign=middle;align=center;" vertex="1" parent="WIyWlLk6GJQsqaUBKTNV-1">
          <mxGeometry x="40" y="1630" width="100" height="40" as="geometry" />
        </mxCell>
        <mxCell id="dZyuDJjZOtoN2MiiPt3H-70" style="edgeStyle=orthogonalEdgeStyle;rounded=0;orthogonalLoop=1;jettySize=auto;html=1;exitX=0.5;exitY=1;exitDx=0;exitDy=0;entryX=0.5;entryY=0;entryDx=0;entryDy=0;" edge="1" parent="WIyWlLk6GJQsqaUBKTNV-1" source="dZyuDJjZOtoN2MiiPt3H-68" target="dZyuDJjZOtoN2MiiPt3H-69">
          <mxGeometry relative="1" as="geometry" />
        </mxCell>
        <mxCell id="dZyuDJjZOtoN2MiiPt3H-68" value="basla" style="ellipse;whiteSpace=wrap;html=1;" vertex="1" parent="WIyWlLk6GJQsqaUBKTNV-1">
          <mxGeometry x="45" y="1740" width="90" height="50" as="geometry" />
        </mxCell>
        <mxCell id="dZyuDJjZOtoN2MiiPt3H-81" style="edgeStyle=orthogonalEdgeStyle;rounded=0;orthogonalLoop=1;jettySize=auto;html=1;exitX=0.5;exitY=1;exitDx=0;exitDy=0;entryX=0.5;entryY=0;entryDx=0;entryDy=0;" edge="1" parent="WIyWlLk6GJQsqaUBKTNV-1" source="dZyuDJjZOtoN2MiiPt3H-69" target="dZyuDJjZOtoN2MiiPt3H-72">
          <mxGeometry relative="1" as="geometry" />
        </mxCell>
        <mxCell id="dZyuDJjZOtoN2MiiPt3H-69" value="sınav notu" style="shape=parallelogram;perimeter=parallelogramPerimeter;whiteSpace=wrap;html=1;fixedSize=1;" vertex="1" parent="WIyWlLk6GJQsqaUBKTNV-1">
          <mxGeometry x="30" y="1830" width="120" height="60" as="geometry" />
        </mxCell>
        <mxCell id="dZyuDJjZOtoN2MiiPt3H-74" value="evet" style="edgeStyle=orthogonalEdgeStyle;rounded=0;orthogonalLoop=1;jettySize=auto;html=1;exitX=0;exitY=0.5;exitDx=0;exitDy=0;entryX=0.5;entryY=0;entryDx=0;entryDy=0;" edge="1" parent="WIyWlLk6GJQsqaUBKTNV-1" source="dZyuDJjZOtoN2MiiPt3H-72" target="dZyuDJjZOtoN2MiiPt3H-73">
          <mxGeometry relative="1" as="geometry" />
        </mxCell>
        <mxCell id="dZyuDJjZOtoN2MiiPt3H-91" value="hayır" style="edgeStyle=orthogonalEdgeStyle;rounded=0;orthogonalLoop=1;jettySize=auto;html=1;exitX=0;exitY=1;exitDx=0;exitDy=0;entryX=0.5;entryY=0;entryDx=0;entryDy=0;" edge="1" parent="WIyWlLk6GJQsqaUBKTNV-1" source="dZyuDJjZOtoN2MiiPt3H-72" target="dZyuDJjZOtoN2MiiPt3H-76">
          <mxGeometry relative="1" as="geometry" />
        </mxCell>
        <mxCell id="dZyuDJjZOtoN2MiiPt3H-72" value="if sınav notu &amp;gt;=90&lt;div&gt;&amp;amp;&amp;amp;&lt;/div&gt;&lt;div&gt;sınav notu &amp;lt;=100&lt;/div&gt;" style="rhombus;whiteSpace=wrap;html=1;" vertex="1" parent="WIyWlLk6GJQsqaUBKTNV-1">
          <mxGeometry x="-30" y="1930" width="240" height="100" as="geometry" />
        </mxCell>
        <mxCell id="dZyuDJjZOtoN2MiiPt3H-106" style="edgeStyle=orthogonalEdgeStyle;rounded=0;orthogonalLoop=1;jettySize=auto;html=1;exitX=0.5;exitY=1;exitDx=0;exitDy=0;entryX=0;entryY=0.5;entryDx=0;entryDy=0;" edge="1" parent="WIyWlLk6GJQsqaUBKTNV-1" source="dZyuDJjZOtoN2MiiPt3H-73" target="dZyuDJjZOtoN2MiiPt3H-100">
          <mxGeometry relative="1" as="geometry" />
        </mxCell>
        <mxCell id="dZyuDJjZOtoN2MiiPt3H-73" value="sınav notunun harf karşılığı A&#39;dır." style="shape=parallelogram;perimeter=parallelogramPerimeter;whiteSpace=wrap;html=1;fixedSize=1;" vertex="1" parent="WIyWlLk6GJQsqaUBKTNV-1">
          <mxGeometry x="-290" y="2080" width="140" height="50" as="geometry" />
        </mxCell>
        <mxCell id="dZyuDJjZOtoN2MiiPt3H-84" value="hayır" style="edgeStyle=orthogonalEdgeStyle;rounded=0;orthogonalLoop=1;jettySize=auto;html=1;entryX=0.5;entryY=0;entryDx=0;entryDy=0;" edge="1" parent="WIyWlLk6GJQsqaUBKTNV-1" source="dZyuDJjZOtoN2MiiPt3H-76" target="dZyuDJjZOtoN2MiiPt3H-86">
          <mxGeometry relative="1" as="geometry">
            <mxPoint x="280" y="2260" as="targetPoint" />
            <Array as="points">
              <mxPoint x="110" y="2165" />
            </Array>
          </mxGeometry>
        </mxCell>
        <mxCell id="dZyuDJjZOtoN2MiiPt3H-92" value="evet" style="edgeStyle=orthogonalEdgeStyle;rounded=0;orthogonalLoop=1;jettySize=auto;html=1;exitX=0.5;exitY=1;exitDx=0;exitDy=0;" edge="1" parent="WIyWlLk6GJQsqaUBKTNV-1" source="dZyuDJjZOtoN2MiiPt3H-76" target="dZyuDJjZOtoN2MiiPt3H-77">
          <mxGeometry relative="1" as="geometry" />
        </mxCell>
        <mxCell id="dZyuDJjZOtoN2MiiPt3H-76" value="if sınav notu &amp;gt;=80&lt;div&gt;&amp;amp;&amp;amp;&lt;/div&gt;&lt;div&gt;sınav notu &amp;lt;=89&lt;/div&gt;" style="rhombus;whiteSpace=wrap;html=1;" vertex="1" parent="WIyWlLk6GJQsqaUBKTNV-1">
          <mxGeometry x="-210" y="2150" width="240" height="90" as="geometry" />
        </mxCell>
        <mxCell id="dZyuDJjZOtoN2MiiPt3H-105" style="edgeStyle=orthogonalEdgeStyle;rounded=0;orthogonalLoop=1;jettySize=auto;html=1;exitX=0.5;exitY=1;exitDx=0;exitDy=0;entryX=0;entryY=0;entryDx=0;entryDy=0;" edge="1" parent="WIyWlLk6GJQsqaUBKTNV-1" source="dZyuDJjZOtoN2MiiPt3H-77" target="dZyuDJjZOtoN2MiiPt3H-100">
          <mxGeometry relative="1" as="geometry" />
        </mxCell>
        <mxCell id="dZyuDJjZOtoN2MiiPt3H-77" value="sınav notunun harf karşılıpı B&#39;dir." style="shape=parallelogram;perimeter=parallelogramPerimeter;whiteSpace=wrap;html=1;fixedSize=1;" vertex="1" parent="WIyWlLk6GJQsqaUBKTNV-1">
          <mxGeometry x="-160" y="2330" width="140" height="50" as="geometry" />
        </mxCell>
        <mxCell id="dZyuDJjZOtoN2MiiPt3H-103" style="edgeStyle=orthogonalEdgeStyle;rounded=0;orthogonalLoop=1;jettySize=auto;html=1;entryX=1;entryY=0;entryDx=0;entryDy=0;" edge="1" parent="WIyWlLk6GJQsqaUBKTNV-1" source="dZyuDJjZOtoN2MiiPt3H-78" target="dZyuDJjZOtoN2MiiPt3H-100">
          <mxGeometry relative="1" as="geometry">
            <Array as="points">
              <mxPoint x="200" y="2525" />
              <mxPoint x="200" y="2722" />
            </Array>
          </mxGeometry>
        </mxCell>
        <mxCell id="dZyuDJjZOtoN2MiiPt3H-78" value="sınav notunun harf karşılığı D&#39;dir." style="shape=parallelogram;perimeter=parallelogramPerimeter;whiteSpace=wrap;html=1;fixedSize=1;" vertex="1" parent="WIyWlLk6GJQsqaUBKTNV-1">
          <mxGeometry x="240" y="2500" width="140" height="50" as="geometry" />
        </mxCell>
        <mxCell id="dZyuDJjZOtoN2MiiPt3H-104" style="edgeStyle=orthogonalEdgeStyle;rounded=0;orthogonalLoop=1;jettySize=auto;html=1;entryX=0.5;entryY=0;entryDx=0;entryDy=0;" edge="1" parent="WIyWlLk6GJQsqaUBKTNV-1" source="dZyuDJjZOtoN2MiiPt3H-85" target="dZyuDJjZOtoN2MiiPt3H-100">
          <mxGeometry relative="1" as="geometry" />
        </mxCell>
        <mxCell id="dZyuDJjZOtoN2MiiPt3H-85" value="sınav notunun harf karşılığı C&#39;dir." style="shape=parallelogram;perimeter=parallelogramPerimeter;whiteSpace=wrap;html=1;fixedSize=1;" vertex="1" parent="WIyWlLk6GJQsqaUBKTNV-1">
          <mxGeometry x="40" y="2410" width="140" height="50" as="geometry" />
        </mxCell>
        <mxCell id="dZyuDJjZOtoN2MiiPt3H-88" value="evet" style="edgeStyle=orthogonalEdgeStyle;rounded=0;orthogonalLoop=1;jettySize=auto;html=1;entryX=0.5;entryY=0;entryDx=0;entryDy=0;" edge="1" parent="WIyWlLk6GJQsqaUBKTNV-1" source="dZyuDJjZOtoN2MiiPt3H-86" target="dZyuDJjZOtoN2MiiPt3H-85">
          <mxGeometry relative="1" as="geometry" />
        </mxCell>
        <mxCell id="dZyuDJjZOtoN2MiiPt3H-93" value="hayır" style="edgeStyle=orthogonalEdgeStyle;rounded=0;orthogonalLoop=1;jettySize=auto;html=1;exitX=1;exitY=0.5;exitDx=0;exitDy=0;entryX=0.5;entryY=0;entryDx=0;entryDy=0;" edge="1" parent="WIyWlLk6GJQsqaUBKTNV-1" source="dZyuDJjZOtoN2MiiPt3H-86" target="dZyuDJjZOtoN2MiiPt3H-90">
          <mxGeometry relative="1" as="geometry" />
        </mxCell>
        <mxCell id="dZyuDJjZOtoN2MiiPt3H-86" value="if sınav notu &amp;gt;= 70&lt;div&gt;&amp;amp;&amp;amp;&lt;/div&gt;&lt;div&gt;sınav notu &amp;lt;= 79&lt;/div&gt;" style="rhombus;whiteSpace=wrap;html=1;" vertex="1" parent="WIyWlLk6GJQsqaUBKTNV-1">
          <mxGeometry x="-10" y="2230" width="240" height="100" as="geometry" />
        </mxCell>
        <mxCell id="dZyuDJjZOtoN2MiiPt3H-94" value="evet" style="edgeStyle=orthogonalEdgeStyle;rounded=0;orthogonalLoop=1;jettySize=auto;html=1;exitX=0.5;exitY=1;exitDx=0;exitDy=0;" edge="1" parent="WIyWlLk6GJQsqaUBKTNV-1" source="dZyuDJjZOtoN2MiiPt3H-90">
          <mxGeometry relative="1" as="geometry">
            <mxPoint x="310" y="2490" as="targetPoint" />
          </mxGeometry>
        </mxCell>
        <mxCell id="dZyuDJjZOtoN2MiiPt3H-97" value="hayır" style="edgeStyle=orthogonalEdgeStyle;rounded=0;orthogonalLoop=1;jettySize=auto;html=1;exitX=1;exitY=0.5;exitDx=0;exitDy=0;" edge="1" parent="WIyWlLk6GJQsqaUBKTNV-1" source="dZyuDJjZOtoN2MiiPt3H-90">
          <mxGeometry relative="1" as="geometry">
            <mxPoint x="520" y="2500" as="targetPoint" />
          </mxGeometry>
        </mxCell>
        <mxCell id="dZyuDJjZOtoN2MiiPt3H-90" value="if sınav notu &amp;gt;= 60&lt;div&gt;&amp;amp;&amp;amp;&lt;/div&gt;&lt;div&gt;sınav notu &amp;lt;=69&lt;/div&gt;" style="rhombus;whiteSpace=wrap;html=1;" vertex="1" parent="WIyWlLk6GJQsqaUBKTNV-1">
          <mxGeometry x="190" y="2320" width="240" height="100" as="geometry" />
        </mxCell>
        <mxCell id="dZyuDJjZOtoN2MiiPt3H-101" style="edgeStyle=orthogonalEdgeStyle;rounded=0;orthogonalLoop=1;jettySize=auto;html=1;entryX=1;entryY=0.5;entryDx=0;entryDy=0;" edge="1" parent="WIyWlLk6GJQsqaUBKTNV-1" source="dZyuDJjZOtoN2MiiPt3H-96" target="dZyuDJjZOtoN2MiiPt3H-100">
          <mxGeometry relative="1" as="geometry" />
        </mxCell>
        <mxCell id="dZyuDJjZOtoN2MiiPt3H-96" value="sınav notunun harf karşılığı F&#39;dir.&amp;nbsp;" style="shape=parallelogram;perimeter=parallelogramPerimeter;whiteSpace=wrap;html=1;fixedSize=1;" vertex="1" parent="WIyWlLk6GJQsqaUBKTNV-1">
          <mxGeometry x="450" y="2660" width="140" height="50" as="geometry" />
        </mxCell>
        <mxCell id="dZyuDJjZOtoN2MiiPt3H-99" value="evet" style="edgeStyle=orthogonalEdgeStyle;rounded=0;orthogonalLoop=1;jettySize=auto;html=1;entryX=0.5;entryY=0;entryDx=0;entryDy=0;" edge="1" parent="WIyWlLk6GJQsqaUBKTNV-1" source="dZyuDJjZOtoN2MiiPt3H-98" target="dZyuDJjZOtoN2MiiPt3H-96">
          <mxGeometry relative="1" as="geometry" />
        </mxCell>
        <mxCell id="dZyuDJjZOtoN2MiiPt3H-107" value="hayır" style="edgeStyle=orthogonalEdgeStyle;rounded=0;orthogonalLoop=1;jettySize=auto;html=1;exitX=1;exitY=0.5;exitDx=0;exitDy=0;entryX=1;entryY=0.5;entryDx=0;entryDy=0;" edge="1" parent="WIyWlLk6GJQsqaUBKTNV-1" source="dZyuDJjZOtoN2MiiPt3H-98" target="dZyuDJjZOtoN2MiiPt3H-72">
          <mxGeometry relative="1" as="geometry" />
        </mxCell>
        <mxCell id="dZyuDJjZOtoN2MiiPt3H-98" value="if sınav notu &amp;gt;= 0&lt;div&gt;&amp;amp;&amp;amp;&lt;/div&gt;&lt;div&gt;sınav notu &amp;lt;= 59&lt;/div&gt;" style="rhombus;whiteSpace=wrap;html=1;" vertex="1" parent="WIyWlLk6GJQsqaUBKTNV-1">
          <mxGeometry x="400" y="2510" width="240" height="80" as="geometry" />
        </mxCell>
        <mxCell id="dZyuDJjZOtoN2MiiPt3H-100" value="bitir" style="ellipse;whiteSpace=wrap;html=1;" vertex="1" parent="WIyWlLk6GJQsqaUBKTNV-1">
          <mxGeometry x="-4" y="2710" width="120" height="80" as="geometry" />
        </mxCell>
      </root>
    </mxGraphModel>
  </diagram>
</mxfile>
